<svg width="217" height="41" viewBox="0 0 217 41" fill="none" xmlns="http://www.w3.org/2000/svg">
<rect y="30.7531" width="45.5602" height="8.54253" fill="#7A4931"/>
<rect x="11.3901" y="20.5021" width="34.1701" height="8.54253" fill="#7A4931"/>
<rect x="22.7803" y="10.2511" width="22.7801" height="8.54253" fill="#7A4931"/>
<rect x="34.1699" width="11.39" height="8.54253" fill="#7A4931"/>
<path d="M68.4259 39.2896H63.8129V24.9382H57.406V39.2896H52.793V21.3503H68.4259V39.2896ZM71.8976 21.3503H82.6612C84.4551 21.3503 85.7536 21.7603 86.5566 22.5804C87.3767 23.3834 87.7867 24.6819 87.7867 26.4758V29.0386C87.7867 30.8325 87.3767 32.1395 86.5566 32.9596C85.7536 33.7626 84.4551 34.1641 82.6612 34.1641H76.5106V39.2896H71.8976V21.3503ZM83.1737 26.4758C83.1737 25.4507 82.6612 24.9382 81.6361 24.9382H76.5106V30.5762H81.6361C82.6612 30.5762 83.1737 30.0637 83.1737 29.0386V26.4758ZM106.109 39.2896H101.496V28.2697L95.3459 39.2896H90.4766V21.3503H95.0896V32.3702L101.24 21.3503H106.109V39.2896ZM121.114 26.2195C121.114 25.1944 120.601 24.6819 119.576 24.6819H115.219C114.194 24.6819 113.682 25.1944 113.682 26.2195V34.4204C113.682 35.4455 114.194 35.958 115.219 35.958H119.576C120.601 35.958 121.114 35.4455 121.114 34.4204V26.2195ZM125.727 34.4204C125.727 36.2143 125.317 37.5213 124.496 38.3414C123.693 39.1444 122.395 39.5459 120.601 39.5459H114.194C112.4 39.5459 111.093 39.1444 110.273 38.3414C109.47 37.5213 109.069 36.2143 109.069 34.4204V26.2195C109.069 24.4256 109.47 23.1271 110.273 22.3241C111.093 21.5041 112.4 21.094 114.194 21.094H120.601C122.395 21.094 123.693 21.5041 124.496 22.3241C125.317 23.1271 125.727 24.4256 125.727 26.2195V34.4204ZM128.686 21.3503H139.449C141.243 21.3503 142.542 21.7603 143.345 22.5804C144.165 23.3834 144.575 24.6819 144.575 26.4758V29.0386C144.575 30.8325 144.165 32.1395 143.345 32.9596C142.542 33.7626 141.243 34.1641 139.449 34.1641H133.299V39.2896H128.686V21.3503ZM139.962 26.4758C139.962 25.4507 139.449 24.9382 138.424 24.9382H133.299V30.5762H138.424C139.449 30.5762 139.962 30.0637 139.962 29.0386V26.4758ZM162.898 39.2896H158.285V28.2697L152.134 39.2896H147.265V21.3503H151.878V32.3702L158.028 21.3503H162.898V39.2896ZM175.083 39.2896H170.47V24.9382H165.088V21.3503H180.465V24.9382H175.083V39.2896ZM196.869 39.2896H182.646V21.3503H196.869V24.9382H187.259V28.3979H194.819V31.9857H187.259V35.7017H196.869V39.2896ZM208.011 39.2896H203.398V24.9382H198.016V21.3503H213.393V24.9382H208.011V39.2896Z" fill="#2C1E17"/>
<path d="M62.3604 17.4507C59.8204 17.6785 57.7133 17.7924 56.0389 17.7924C54.9227 17.7924 54.1026 17.5305 53.5787 17.0065C53.0547 16.4826 52.7928 15.6625 52.7928 14.5463V9.07905C52.7928 7.88309 53.0604 7.01745 53.5958 6.48212C54.1425 5.9354 55.0138 5.66204 56.2098 5.66204H62.3604V8.05395H56.8932C56.2098 8.05395 55.8681 8.39565 55.8681 9.07905V14.5463C55.8681 14.8082 55.9421 15.019 56.0902 15.1784C56.2497 15.3265 56.449 15.4005 56.6882 15.4005C56.9274 15.4005 57.1893 15.4005 57.4741 15.4005C57.7588 15.3891 58.055 15.3777 58.3625 15.3664C58.67 15.355 58.9776 15.3436 59.2851 15.3322C59.604 15.3208 60.0084 15.298 60.4981 15.2638C60.9993 15.2297 61.6201 15.1898 62.3604 15.1442V17.4507ZM69.7944 17.6216H66.7191V8.05395H63.1312V5.66204H73.3823V8.05395H69.7944V17.6216ZM74.8365 5.66204H82.0122C83.2082 5.66204 84.0738 5.9354 84.6092 6.48212C85.1559 7.01745 85.4293 7.88309 85.4293 9.07905V10.7876C85.4293 11.9835 85.1559 12.8548 84.6092 13.4016C84.0738 13.9369 83.2082 14.2046 82.0122 14.2046H77.9118V17.6216H74.8365V5.66204ZM82.3539 9.07905C82.3539 8.39565 82.0122 8.05395 81.3288 8.05395H77.9118V11.8127H81.3288C82.0122 11.8127 82.3539 11.471 82.3539 10.7876V9.07905ZM94.9108 8.9082C94.9108 8.22479 94.5691 7.88309 93.8857 7.88309H90.9812C90.2978 7.88309 89.9561 8.22479 89.9561 8.9082V14.3754C89.9561 15.0588 90.2978 15.4005 90.9812 15.4005H93.8857C94.5691 15.4005 94.9108 15.0588 94.9108 14.3754V8.9082ZM97.9861 14.3754C97.9861 15.5714 97.7128 16.4427 97.166 16.9894C96.6307 17.5248 95.7651 17.7924 94.5691 17.7924H90.2978C89.1019 17.7924 88.2305 17.5248 87.6838 16.9894C87.1485 16.4427 86.8808 15.5714 86.8808 14.3754V8.9082C86.8808 7.71224 87.1485 6.8466 87.6838 6.31127C88.2305 5.76455 89.1019 5.49118 90.2978 5.49118H94.5691C95.7651 5.49118 96.6307 5.76455 97.166 6.31127C97.7128 6.8466 97.9861 7.71224 97.9861 8.9082V14.3754ZM107.305 17.6216V10.275L103.205 17.6216H99.9589V5.66204H103.034V13.0086L107.135 5.66204H110.381V17.6216H107.305ZM104.23 4.80778C102.749 4.80778 102.009 4.06743 102.009 2.58672V2.07417H104.23V2.5013C104.23 2.67215 104.287 2.81452 104.401 2.92843C104.515 3.04233 104.657 3.09928 104.828 3.09928H105.341C105.512 3.09928 105.654 3.04233 105.768 2.92843C105.882 2.81452 105.939 2.67215 105.939 2.5013V2.07417H108.16V2.58672C108.16 4.06743 107.419 4.80778 105.939 4.80778H104.23Z" fill="#70442F"/>
</svg>
